<?xml version="1.0" standalone="no"?>
<!DOCTYPE svg PUBLIC "-//W3C//DTD SVG 1.1//EN" "http://www.w3.org/Graphics/SVG/1.1/DTD/svg11.dtd" >
<svg xmlns="http://www.w3.org/2000/svg" xmlns:xlink="http://www.w3.org/1999/xlink" version="1.1">
<metadata>
Created by FontForge 20201107 at Wed May 16 11:51:55 2007
 By Jimmy Wärting
Copyright 1990-1999 as an unpublished work by Bitstream Inc.  All rights reserved.  Confidential.
</metadata>
<defs>
<font id="NewsGothicBT-RomanCondensed" horiz-adv-x="500" >
  <font-face 
    font-family="News Gothic"
    font-weight="500"
    font-stretch="condensed"
    units-per-em="1000"
    panose-1="0 0 0 0 0 0 0 0 0 0"
    ascent="800"
    descent="-200"
    x-height="519"
    cap-height="723"
    bbox="-166 -236 1064 962"
    underline-thickness="46"
    underline-position="-110"
    stemh="61"
    stemv="69"
    unicode-range="U+0020-FB02"
  />
<missing-glyph horiz-adv-x="212" 
 />
    <glyph glyph-name=".notdef" horiz-adv-x="212" 
 />
    <glyph glyph-name="space" unicode=" " horiz-adv-x="212" 
 />
    <glyph glyph-name="exclam" unicode="!" horiz-adv-x="256" 
d="M103 213l-17 511h83l-16 -511h-50zM89 0v89h79v-89h-79z" />
    <glyph glyph-name="quotedbl" unicode="&#x22;" horiz-adv-x="278" 
d="M97 700v-270h-49v270h49zM231 700v-270h-50v270h50z" />
    <glyph glyph-name="numbersign" unicode="#" horiz-adv-x="769" 
d="M448 710l-82 -236h129l84 236h62l-83 -236h154l-18 -52h-155l-48 -136h166l-18 -52h-166l-83 -234h-63l84 234h-131l-84 -234h-62l83 234h-160l19 52h159l49 136h-172l17 52h173l84 236h62zM476 422h-130l-47 -136h130z" />
    <glyph glyph-name="dollar" unicode="$" horiz-adv-x="425" 
d="M188 -113v113c-90 15 -142 82 -148 196h60c3 -80 33 -126 88 -134v295c-90 63 -134 130 -134 209c0 84 51 142 134 149v98h50v-98c81 -10 128 -70 135 -174h-56c-3 68 -28 108 -79 121v-264c102 -76 151 -137 151 -227c0 -99 -55 -161 -151 -171v-113h-50zM238 59
c57 4 93 48 93 112c0 60 -30 104 -93 149v-261zM188 434v228c-50 -4 -79 -37 -79 -91c0 -57 25 -97 79 -137z" />
    <glyph glyph-name="percent" unicode="%" horiz-adv-x="736" 
d="M541 292c84 0 152 -68 152 -152s-68 -152 -152 -152s-152 68 -152 152s68 152 152 152zM541 237c-54 0 -97 -43 -97 -97s43 -97 97 -97s97 43 97 97s-43 97 -97 97zM194 725c84 0 152 -68 152 -152s-68 -152 -152 -152s-152 68 -152 152s68 152 152 152zM194 670
c-54 0 -97 -44 -97 -98s43 -97 97 -97s97 43 97 97s-43 98 -97 98zM114 -14l438 739h55l-438 -739h-55z" />
    <glyph glyph-name="ampersand" unicode="&#x26;" horiz-adv-x="506" 
d="M490 55l-39 -58c-34 23 -62 48 -85 75c-46 -59 -97 -86 -164 -86c-96 0 -167 73 -167 182c0 80 40 145 115 227c-32 73 -48 137 -48 194c0 94 49 146 125 146c72 0 126 -54 126 -134c0 -71 -41 -134 -119 -212c29 -69 70 -136 122 -200c21 44 31 95 33 158l67 -3
c-2 -81 -19 -151 -52 -209c24 -28 53 -55 86 -80zM318 115c-52 64 -97 136 -137 215c-51 -45 -77 -98 -77 -157c0 -71 45 -118 107 -118c41 0 74 19 107 60zM206 449c53 51 78 99 78 152c0 50 -23 78 -58 78c-36 0 -59 -30 -59 -83c0 -44 13 -93 39 -147z" />
    <glyph glyph-name="quoteright" unicode="&#x2019;" horiz-adv-x="213" 
d="M72 648v89h79v-94l-59 -140h-29l45 145h-36z" />
    <glyph glyph-name="parenleft" unicode="(" horiz-adv-x="275" 
d="M256 -79h-68c-82 132 -122 263 -122 408s40 276 122 408h68c-85 -134 -126 -261 -126 -408s41 -274 126 -408z" />
    <glyph glyph-name="parenright" unicode=")" horiz-adv-x="275" 
d="M19 -79c85 134 126 261 126 408s-41 274 -126 408h68c82 -132 122 -263 122 -408s-40 -276 -122 -408h-68z" />
    <glyph glyph-name="asterisk" unicode="*" 
d="M166 344l-63 47l115 125l-165 35l23 73l154 -70l-14 169h68l-14 -169l154 70l23 -73l-165 -35l115 -125l-63 -47l-84 149z" />
    <glyph glyph-name="plus" unicode="+" horiz-adv-x="833" 
d="M441 596v-274h268v-48h-268v-274h-48v274h-269v48h269v274h48z" />
    <glyph glyph-name="comma" unicode="," horiz-adv-x="213" 
d="M71 2v89h79v-95l-59 -139h-29l44 145h-35z" />
    <glyph glyph-name="hyphen" unicode="-" horiz-adv-x="329" 
d="M45 228v62h239v-62h-239z" />
    <glyph glyph-name="period" unicode="." horiz-adv-x="213" 
d="M67 0v89h79v-89h-79z" />
    <glyph glyph-name="slash" unicode="/" horiz-adv-x="278" 
d="M-24 -93l270 830h56l-271 -830h-55z" />
    <glyph glyph-name="zero" unicode="0" horiz-adv-x="425" 
d="M41 359c0 253 38 372 171 372c134 0 172 -119 172 -372s-38 -371 -172 -371c-133 0 -171 118 -171 371zM111 359c0 -212 17 -309 101 -309s100 97 100 309s-16 309 -100 309s-101 -97 -101 -309z" />
    <glyph glyph-name="one" unicode="1" horiz-adv-x="425" 
d="M101 0v60h86v574l-86 -6v41c46 15 84 33 115 56h40v-665h82v-60h-237z" />
    <glyph glyph-name="two" unicode="2" horiz-adv-x="425" 
d="M44 0v62c29 89 86 170 151 260c61 84 113 149 113 235c0 69 -37 111 -93 111c-63 0 -97 -50 -100 -149h-63c3 140 57 209 168 209c96 0 156 -65 156 -169c0 -99 -63 -178 -140 -284c-60 -82 -106 -148 -128 -208h266v-67h-330z" />
    <glyph glyph-name="three" unicode="3" horiz-adv-x="425" 
d="M37 171h62c0 -80 30 -119 93 -119s101 54 101 155s-48 146 -155 146h-7v57h10c95 0 142 44 142 132c0 80 -35 125 -85 125c-48 0 -77 -32 -86 -97h-61c6 101 62 157 146 157c92 0 154 -72 154 -187c0 -77 -28 -127 -88 -156c70 -26 103 -85 103 -177
c0 -135 -68 -217 -171 -217c-102 0 -158 60 -158 172v9z" />
    <glyph glyph-name="four" unicode="4" horiz-adv-x="425" 
d="M252 -12v174h-225v36l193 520h101v-493h75v-63h-75v-174h-69zM252 225l7 443h-4c-15 -51 -30 -93 -42 -127l-116 -316h155z" />
    <glyph glyph-name="five" unicode="5" horiz-adv-x="425" 
d="M55 166h62c1 -77 32 -118 87 -118c64 0 106 70 106 203c0 109 -36 166 -99 166c-39 0 -70 -24 -88 -70l-55 10l24 361h249l-7 -63h-187l-11 -212c21 23 46 32 81 32c103 0 162 -78 162 -224c0 -171 -70 -263 -182 -263c-89 0 -142 62 -142 169v9z" />
    <glyph glyph-name="six" unicode="6" horiz-adv-x="425" 
d="M123 312c-1 -19 -2 -37 -2 -54c0 -136 36 -206 101 -206c58 0 92 58 92 167c0 107 -33 162 -92 162c-34 0 -70 -23 -99 -69zM120 376c32 42 74 63 114 63c86 0 149 -79 149 -222c0 -144 -67 -229 -167 -229c-120 0 -165 113 -165 351c0 259 63 391 180 391
c76 0 133 -55 134 -142h-64c-6 57 -29 85 -71 85c-70 0 -108 -100 -110 -297z" />
    <glyph glyph-name="seven" unicode="7" horiz-adv-x="425" 
d="M88 -12l205 668h-239v62h312v-45l-206 -685h-72z" />
    <glyph glyph-name="eight" unicode="8" horiz-adv-x="425" 
d="M151 380c-64 50 -95 109 -95 181c0 100 62 168 159 168c96 0 160 -65 160 -159c0 -70 -34 -132 -105 -186c79 -52 119 -121 119 -205c0 -111 -77 -191 -179 -191c-104 0 -175 76 -175 194c0 76 38 137 116 198zM212 347c-71 -48 -106 -101 -106 -167
c0 -77 46 -129 106 -129s105 50 105 128c0 69 -33 120 -105 168zM213 416c63 46 94 93 94 153c0 58 -38 101 -94 101c-54 0 -91 -41 -91 -106c0 -56 30 -103 91 -148z" />
    <glyph glyph-name="nine" unicode="9" horiz-adv-x="425" 
d="M303 342c-32 -42 -75 -63 -115 -63c-86 0 -148 79 -148 222c0 144 66 229 166 229c120 0 166 -113 166 -351c0 -259 -64 -391 -181 -391c-76 0 -132 55 -133 142h63c6 -57 30 -85 72 -85c70 0 108 100 110 297zM300 406c1 19 2 37 2 54c0 136 -36 206 -101 206
c-58 0 -93 -57 -93 -167c0 -107 33 -162 92 -162c34 0 71 23 100 69z" />
    <glyph glyph-name="colon" unicode=":" horiz-adv-x="236" 
d="M79 273v89h79v-89h-79zM79 0v89h79v-89h-79z" />
    <glyph glyph-name="semicolon" unicode=";" horiz-adv-x="236" 
d="M78 273v89h79v-89h-79zM78 2v89h79v-95l-59 -139h-29l43 145h-34z" />
    <glyph glyph-name="less" unicode="&#x3c;" horiz-adv-x="833" 
d="M704 501l-499 -203l499 -202v-53l-575 235v40l575 236v-53z" />
    <glyph glyph-name="equal" unicode="=" horiz-adv-x="833" 
d="M709 413v-48h-585v48h585zM709 231v-48h-585v48h585z" />
    <glyph glyph-name="greater" unicode="&#x3e;" horiz-adv-x="833" 
d="M704 318v-40l-575 -235v53l499 202l-499 203v53z" />
    <glyph glyph-name="question" unicode="?" horiz-adv-x="343" 
d="M111 215c-1 10 -1 19 -1 28c0 71 20 121 46 173c32 64 75 117 75 185c0 51 -26 81 -66 81s-68 -32 -68 -87v-3l-57 6c1 87 50 139 129 139c80 0 128 -51 128 -134c0 -85 -52 -145 -91 -214c-28 -49 -44 -95 -44 -154c0 -6 1 -13 1 -20h-52zM97 0v89h79v-89h-79z" />
    <glyph glyph-name="at" unicode="@" horiz-adv-x="1000" 
d="M591 229l30 121c-12 61 -52 97 -105 97c-102 0 -173 -100 -173 -230c0 -73 38 -115 101 -115c69 0 128 50 147 127zM634 408l29 61h46l-68 -274c-5 -22 -8 -36 -8 -45c0 -28 19 -45 52 -45c32 0 69 13 103 40c62 49 100 135 100 238c0 161 -138 283 -345 283
c-114 0 -208 -32 -284 -97c-96 -82 -145 -190 -145 -319c0 -112 37 -196 119 -262c65 -53 161 -85 266 -85c113 0 222 34 310 94l19 -27c-96 -72 -203 -108 -319 -108c-124 0 -226 30 -304 90c-101 77 -148 176 -148 310c0 133 57 251 165 340c86 71 195 108 322 108
c109 0 207 -32 272 -82c84 -65 127 -150 127 -248c0 -112 -42 -204 -119 -265c-45 -35 -98 -54 -151 -54c-63 0 -94 24 -94 74c0 4 1 9 1 14c-33 -57 -84 -88 -144 -88c-100 0 -153 56 -153 160c0 152 102 267 227 267c61 0 103 -27 124 -80z" />
    <glyph glyph-name="A" unicode="A" horiz-adv-x="440" 
d="M13 0l157 723h102l158 -723h-78l-42 213h-182l-42 -213h-73zM144 281h151l-76 378z" />
    <glyph glyph-name="B" unicode="B" horiz-adv-x="475" 
d="M65 0v723h132c77 0 131 -3 180 -53c27 -27 43 -71 43 -124c0 -82 -34 -136 -103 -164c81 -29 119 -88 119 -180c0 -137 -75 -202 -229 -202h-142zM139 409h69c93 0 141 45 141 132c0 91 -48 118 -151 118h-59v-250zM139 66h75c102 0 149 41 149 138
c0 98 -50 142 -155 142h-69v-280z" />
    <glyph glyph-name="C" unicode="C" horiz-adv-x="464" 
d="M434 237v-16c0 -152 -70 -235 -189 -235c-135 0 -204 122 -204 366c0 260 64 386 207 386c109 0 179 -83 179 -227h-72c-5 107 -44 162 -108 162c-95 0 -129 -102 -129 -314c0 -208 37 -307 141 -307c65 0 108 60 108 170v15h67z" />
    <glyph glyph-name="D" unicode="D" horiz-adv-x="485" 
d="M69 0v723h134c171 0 240 -112 240 -360c0 -250 -68 -363 -240 -363h-134zM144 659v-591c14 -1 28 -2 40 -2c144 0 185 86 185 299c0 211 -41 296 -184 296c-13 0 -27 -1 -41 -2z" />
    <glyph glyph-name="E" unicode="E" horiz-adv-x="417" 
d="M65 0v723h325v-67h-251v-249h184v-66h-184v-274h260v-67h-334z" />
    <glyph glyph-name="F" unicode="F" horiz-adv-x="390" 
d="M65 0v723h303v-67h-229v-249h176v-66h-176v-341h-74z" />
    <glyph glyph-name="G" unicode="G" horiz-adv-x="479" 
d="M381 0l-8 42c-33 -39 -72 -56 -126 -56c-137 0 -206 122 -206 366c0 260 64 386 207 386c109 0 179 -83 179 -227h-72c-5 107 -44 162 -108 162c-97 0 -128 -103 -128 -319c0 -203 38 -302 137 -302c64 0 107 49 107 137v85h-105v65h175v-339h-52z" />
    <glyph glyph-name="H" unicode="H" horiz-adv-x="488" 
d="M65 0v723h74v-310h210v310h74v-723h-74v344h-210v-344h-74z" />
    <glyph glyph-name="I" unicode="I" horiz-adv-x="209" 
d="M67 0v723h74v-723h-74z" />
    <glyph glyph-name="J" unicode="J" horiz-adv-x="269" 
d="M206 241v-50c0 -62 -2 -107 -21 -141c-25 -44 -70 -65 -133 -65c-18 0 -38 2 -58 6l3 69c22 -7 42 -10 62 -10c72 0 74 53 74 153v520h73v-482z" />
    <glyph glyph-name="K" unicode="K" horiz-adv-x="444" 
d="M64 0v723h75v-386l214 386h74l-144 -255l167 -468h-80l-135 391l-97 -174v-217h-74z" />
    <glyph glyph-name="L" unicode="L" horiz-adv-x="382" 
d="M69 0v723h75v-654h227v-69h-302z" />
    <glyph glyph-name="M" unicode="M" horiz-adv-x="616" 
d="M64 0v723h115l87 -376c15 -65 29 -138 40 -220c10 72 24 145 41 219l88 377h116v-723h-66v672l-156 -672h-46l-154 672v-672h-65z" />
    <glyph glyph-name="N" unicode="N" horiz-adv-x="507" 
d="M186 500c-22 60 -40 116 -55 167v-667h-65v723h108l149 -410c21 -59 41 -119 59 -180c-6 62 -6 115 -6 158v432h65v-723h-73z" />
    <glyph glyph-name="O" unicode="O" horiz-adv-x="481" 
d="M240 670c-85 0 -121 -95 -121 -291c0 -219 32 -325 121 -325c87 0 121 101 121 308s-35 308 -121 308zM240 -14c-130 0 -199 127 -199 376s69 375 199 375s200 -126 200 -375s-70 -376 -200 -376z" />
    <glyph glyph-name="P" unicode="P" horiz-adv-x="444" 
d="M65 0v723h121c156 0 233 -64 233 -196s-77 -196 -233 -196h-47v-331h-74zM139 392h63c98 0 147 45 147 131c0 89 -49 133 -147 133h-63v-264z" />
    <glyph glyph-name="Q" unicode="Q" horiz-adv-x="481" 
d="M308 87c-19 27 -37 42 -58 47l10 59c27 -3 50 -21 76 -52c19 47 25 114 25 201c0 220 -31 328 -121 328c-89 0 -121 -99 -121 -308c0 -206 35 -308 121 -308c24 0 47 11 68 33zM342 21c-32 -24 -65 -35 -102 -35c-130 0 -199 127 -199 376s69 375 199 375
c131 0 200 -126 200 -375c0 -117 -11 -212 -60 -297c22 -38 47 -57 79 -59v-64c-56 9 -94 34 -117 79z" />
    <glyph glyph-name="R" unicode="R" horiz-adv-x="468" 
d="M65 0v723h132c156 0 233 -62 233 -190c0 -88 -40 -149 -114 -173l118 -360h-80l-109 344c-25 -1 -51 -2 -77 -2h-29v-342h-74zM139 407h63c99 0 149 42 149 126c0 85 -49 126 -149 126h-63v-252z" />
    <glyph glyph-name="S" unicode="S" horiz-adv-x="435" 
d="M36 192h70c5 -94 41 -139 115 -139c63 0 106 47 106 120c0 78 -52 124 -140 189c-89 66 -140 114 -140 212c0 92 67 163 160 163c107 0 173 -71 177 -196h-69c-6 89 -41 134 -105 134c-59 0 -97 -39 -97 -101c0 -31 13 -62 35 -85c38 -40 88 -71 135 -109
c77 -62 114 -120 114 -204c0 -116 -72 -190 -178 -190c-114 0 -181 74 -183 206z" />
    <glyph glyph-name="T" unicode="T" horiz-adv-x="382" 
d="M154 0v661h-144v62h363v-62h-146v-661h-73z" />
    <glyph glyph-name="U" unicode="U" horiz-adv-x="490" 
d="M63 253v470h74v-463c0 -141 9 -208 108 -208c97 0 107 68 107 208v463h74v-470c0 -95 -3 -161 -38 -206c-30 -38 -81 -61 -143 -61c-63 0 -114 23 -144 61c-36 45 -38 111 -38 206z" />
    <glyph glyph-name="V" unicode="V" horiz-adv-x="410" 
d="M170 0l-165 723h74l108 -493c6 -26 11 -64 18 -113c6 35 13 74 22 116l107 490h71l-165 -723h-70z" />
    <glyph glyph-name="W" unicode="W" horiz-adv-x="619" 
d="M199 0h-66l-114 723h68l66 -430c8 -55 15 -111 17 -169c4 58 12 115 23 171l87 428h59l87 -428c11 -56 19 -113 23 -171c2 67 10 123 17 169l66 430h68l-114 -723h-66l-99 519c-6 29 -10 62 -12 98c-5 -52 -10 -91 -15 -117z" />
    <glyph glyph-name="X" unicode="X" horiz-adv-x="382" 
d="M-11 0l155 383l-147 340h79l107 -264l106 264h76l-139 -339l168 -384h-83l-125 307l-121 -307h-76z" />
    <glyph glyph-name="Y" unicode="Y" horiz-adv-x="377" 
d="M151 0v311l-162 412h77l124 -329l121 329h76l-160 -412v-311h-76z" />
    <glyph glyph-name="Z" unicode="Z" horiz-adv-x="369" 
d="M358 0h-344v56l262 609h-235v58h317v-50l-264 -607h264v-66z" />
    <glyph glyph-name="bracketleft" unicode="[" horiz-adv-x="269" 
d="M142 -41h113v-38h-177v802h177v-38h-113v-726z" />
    <glyph glyph-name="backslash" unicode="\" horiz-adv-x="278" 
d="M31 737l271 -830h-55l-272 830h56z" />
    <glyph glyph-name="bracketright" unicode="]" horiz-adv-x="269" 
d="M127 -41v726h-112v38h176v-802h-176v38h112z" />
    <glyph glyph-name="asciicircum" unicode="^" horiz-adv-x="1000" 
d="M534 712l259 -272h-70l-223 222l-224 -222h-70l260 272h68z" />
    <glyph glyph-name="underscore" unicode="_" 
d="M500 -187v-49h-500v49h500z" />
    <glyph glyph-name="quoteleft" unicode="&#x2018;" horiz-adv-x="213" 
d="M148 592v-89h-79v95l59 139h29l-45 -145h36z" />
    <glyph glyph-name="a" unicode="a" horiz-adv-x="410" 
d="M280 47c-35 -35 -76 -52 -119 -52c-79 0 -126 51 -126 131c0 100 83 178 245 219c1 12 2 23 2 33c0 64 -23 92 -80 92c-49 0 -72 -30 -84 -98l-67 11c16 96 69 147 150 147c108 0 149 -55 149 -173v-237c0 -42 3 -81 9 -120h-71zM280 279c-115 -26 -176 -84 -176 -154
c0 -40 29 -70 69 -70c31 0 69 19 107 56v168z" />
    <glyph glyph-name="b" unicode="b" horiz-adv-x="410" 
d="M60 0v723h69v-251c33 40 66 59 102 59c88 0 141 -92 141 -271c0 -180 -52 -272 -142 -272c-35 0 -69 20 -101 60v-48h-69zM129 117c27 -44 57 -66 88 -66c61 0 83 70 83 215c0 140 -24 207 -83 207c-31 0 -60 -22 -88 -66v-290z" />
    <glyph glyph-name="c" unicode="c" horiz-adv-x="373" 
d="M272 370c-3 67 -29 101 -78 101c-65 0 -87 -69 -87 -212c0 -144 21 -210 88 -210c49 0 77 41 80 121h64c-1 -115 -59 -183 -144 -183c-109 0 -158 89 -158 272s49 272 158 272c81 0 137 -60 141 -161h-64z" />
    <glyph glyph-name="d" unicode="d" horiz-adv-x="410" 
d="M280 117v290c-28 44 -57 66 -88 66c-59 0 -83 -67 -83 -207c0 -145 22 -215 83 -215c31 0 61 22 88 66zM349 0h-69v48c-32 -40 -67 -60 -102 -60c-90 0 -141 92 -141 272c0 179 52 271 140 271c36 0 70 -19 103 -59v251h69v-723z" />
    <glyph glyph-name="e" unicode="e" horiz-adv-x="381" 
d="M108 308h166v20c0 97 -21 143 -80 143c-56 0 -82 -53 -86 -163zM275 170h66c-6 -118 -62 -183 -146 -183c-109 0 -158 89 -158 272s49 272 158 272c99 0 150 -80 150 -240c0 -13 0 -27 -1 -41h-237c1 -137 23 -201 88 -201c49 0 77 41 80 121z" />
    <glyph glyph-name="f" unicode="f" horiz-adv-x="236" 
d="M232 728v-56c-13 3 -23 5 -31 5c-51 0 -56 -25 -56 -88v-70h83v-61h-83v-458h-69v458h-78v61h78v61c0 107 19 153 102 153c19 0 36 -1 54 -5z" />
    <glyph glyph-name="g" unicode="g" horiz-adv-x="371" 
d="M184 471c-54 0 -73 -39 -73 -128c0 -88 19 -127 73 -127c51 0 70 40 70 127s-19 128 -70 128zM152 30c-49 -19 -71 -41 -71 -77c0 -40 39 -67 107 -67c74 0 114 25 114 65c0 46 -47 67 -150 79zM94 192c-30 31 -45 80 -45 151c0 122 46 185 133 185c44 0 78 -15 101 -47
c25 32 52 47 85 47h3v-65c-7 2 -13 3 -20 3c-18 0 -34 -8 -50 -23c10 -36 15 -73 15 -112c0 -112 -48 -173 -132 -173c-13 0 -28 2 -44 5c-23 -1 -40 -17 -40 -30c0 -14 10 -28 25 -33c33 -11 78 -13 128 -28c77 -23 113 -52 113 -117c0 -73 -69 -126 -181 -126
c-110 0 -172 46 -172 119c0 40 24 71 74 102c-35 18 -52 38 -52 66c0 31 20 53 59 76z" />
    <glyph glyph-name="h" unicode="h" horiz-adv-x="413" 
d="M62 0v723h69v-258c40 45 78 67 124 67c69 0 99 -45 99 -134v-398h-69v375c0 65 -12 96 -58 96c-34 0 -66 -23 -96 -68v-403h-69z" />
    <glyph glyph-name="i" unicode="i" horiz-adv-x="190" 
d="M60 0v519h70v-519h-70zM60 641v82h70v-82h-70z" />
    <glyph glyph-name="j" unicode="j" horiz-adv-x="190" 
d="M130 -38c0 -95 -20 -136 -95 -136c-8 0 -23 1 -48 4v57c9 -1 17 -2 24 -2c46 0 49 27 49 94v540h70v-557zM60 641v82h70v-82h-70z" />
    <glyph glyph-name="k" unicode="k" horiz-adv-x="375" 
d="M130 270l136 249h70l-94 -170l119 -349h-74l-89 280l-68 -124v-156h-70v723h70v-453z" />
    <glyph glyph-name="l" unicode="l" horiz-adv-x="190" 
d="M60 0v723h70v-723h-70z" />
    <glyph glyph-name="m" unicode="m" horiz-adv-x="636" 
d="M62 0v519h69v-54c40 45 77 67 123 67s76 -23 96 -69c43 45 80 69 127 69c69 0 100 -44 100 -134v-398h-70v375c0 65 -11 96 -57 96c-34 0 -66 -23 -96 -68v-403h-70v375c0 65 -11 96 -57 96c-34 0 -66 -23 -96 -68v-403h-69z" />
    <glyph glyph-name="n" unicode="n" horiz-adv-x="413" 
d="M62 0v519h69v-54c40 45 77 67 123 67c68 0 100 -44 100 -134v-398h-69v375c0 68 -12 96 -58 96c-34 0 -69 -23 -96 -68v-403h-69z" />
    <glyph glyph-name="o" unicode="o" horiz-adv-x="382" 
d="M35 259c0 183 49 272 158 272c104 0 154 -90 154 -272s-50 -272 -154 -272c-109 0 -158 89 -158 272zM106 259c0 -144 21 -210 86 -210c60 0 83 68 83 210s-23 211 -83 211c-65 0 -86 -67 -86 -211z" />
    <glyph glyph-name="p" unicode="p" horiz-adv-x="410" 
d="M62 -174v693h47l23 -47c33 40 66 59 102 59c88 0 141 -92 141 -271c0 -180 -52 -272 -142 -272c-35 0 -69 20 -101 60v-222h-70zM132 407v-290c28 -44 57 -66 88 -66c61 0 83 70 83 215c0 140 -24 207 -83 207c-31 0 -60 -22 -88 -66z" />
    <glyph glyph-name="q" unicode="q" horiz-adv-x="410" 
d="M347 -174h-69v222c-32 -40 -66 -60 -101 -60c-90 0 -142 92 -142 272c0 179 52 271 140 271c36 0 70 -19 103 -59l23 47h46v-693zM278 407c-28 44 -57 66 -88 66c-59 0 -83 -67 -83 -207c0 -145 22 -215 83 -215c31 0 60 22 88 66v290z" />
    <glyph glyph-name="r" unicode="r" horiz-adv-x="263" 
d="M60 0v519h70v-60c34 48 70 71 118 71c5 0 10 -1 15 -1v-67c-5 0 -10 1 -15 1c-52 0 -89 -26 -118 -81v-382h-70z" />
    <glyph glyph-name="s" unicode="s" horiz-adv-x="376" 
d="M36 126l66 15c9 -61 45 -96 91 -96c44 0 76 32 76 80c0 54 -39 80 -95 118c-76 52 -123 89 -123 158c0 76 56 130 129 130c78 0 125 -40 146 -124l-59 -18c-14 56 -42 85 -84 85c-40 0 -66 -27 -66 -64c0 -61 69 -86 152 -149c46 -35 68 -77 68 -131
c0 -86 -58 -142 -150 -142c-79 0 -137 52 -151 138z" />
    <glyph glyph-name="t" unicode="t" horiz-adv-x="240" 
d="M75 459h-69v60h69v173h68v-173h93v-60h-93v-333c0 -53 7 -77 47 -77c10 0 25 3 46 7v-58c-31 -8 -53 -11 -68 -11c-62 0 -93 34 -93 101v371z" />
    <glyph glyph-name="u" unicode="u" horiz-adv-x="413" 
d="M352 519v-519h-69v54c-40 -45 -77 -67 -123 -67c-68 0 -100 43 -100 133v399h69v-375c0 -68 12 -96 58 -96c34 0 69 23 96 68v403h69z" />
    <glyph glyph-name="v" unicode="v" horiz-adv-x="379" 
d="M143 0l-127 519h70l105 -445l108 445h65l-128 -519h-93z" />
    <glyph glyph-name="w" unicode="w" horiz-adv-x="551" 
d="M124 0l-104 519h67l63 -341c3 -18 6 -44 9 -77c3 33 7 58 11 76l74 342h64l76 -342c3 -12 6 -38 9 -76c3 43 5 69 7 77l63 341h68l-106 -519h-61l-82 385c-2 10 -4 29 -5 58c-3 -27 -6 -47 -9 -59l-83 -384h-61z" />
    <glyph glyph-name="x" unicode="x" horiz-adv-x="323" 
d="M3 0l120 263l-117 256h72l78 -182l84 182h66l-113 -247l130 -272h-73l-89 199l-92 -199h-66z" />
    <glyph glyph-name="y" unicode="y" horiz-adv-x="347" 
d="M9 519h72l90 -391l88 391h69l-121 -517c-29 -122 -74 -177 -173 -177c-7 0 -15 0 -22 1v64c6 -1 12 -1 18 -1c64 0 96 36 111 117z" />
    <glyph glyph-name="z" unicode="z" horiz-adv-x="332" 
d="M24 0v53l207 407h-188v59h264v-49l-209 -412h209v-58h-283z" />
    <glyph glyph-name="braceleft" unicode="{" 
d="M417 669h-18c-92 0 -109 -31 -109 -124v-118c0 -97 -16 -145 -96 -168c80 -23 96 -71 96 -168v-118c0 -92 16 -124 105 -124c7 0 14 1 22 1v-52h-23c-137 0 -164 44 -164 180v119c0 99 -32 137 -123 137c-7 0 -14 -1 -22 -1v53c8 0 15 -1 22 -1c91 0 123 38 123 137v118
c0 136 28 181 164 181h23v-52z" />
    <glyph glyph-name="bar" unicode="|" 
d="M277 764v-1000h-53v1000h53z" />
    <glyph glyph-name="braceright" unicode="}" 
d="M271 540v-118c0 -99 32 -137 123 -137c7 0 14 1 22 1v-53c-8 0 -15 1 -22 1c-91 0 -123 -38 -123 -137v-119c0 -136 -28 -180 -164 -180h-23v52h19c90 0 108 29 108 123v118c0 97 15 145 96 168c-81 23 -96 71 -96 168v118c0 93 -16 125 -105 125c-7 0 -14 -1 -22 -1v52
h23c136 0 164 -45 164 -181z" />
    <glyph glyph-name="asciitilde" unicode="~" horiz-adv-x="833" 
d="M747 311c-66 -47 -128 -70 -189 -70c-54 0 -98 18 -141 33c-47 17 -91 34 -141 34c-59 0 -118 -28 -189 -78v55c68 47 130 71 189 71c54 0 97 -17 141 -33c48 -17 92 -35 141 -35c60 0 119 28 189 78v-55z" />
    <glyph glyph-name="exclamdown" unicode="&#xa1;" horiz-adv-x="256" 
d="M167 724v-90h-79v90h79zM152 511l17 -511h-83l17 511h49z" />
    <glyph glyph-name="cent" unicode="&#xa2;" horiz-adv-x="425" 
d="M302 370c-1 47 -12 81 -38 96l-66 -409c9 -2 18 -3 24 -3c48 0 75 43 77 127h58c-5 -119 -56 -181 -145 -181c-7 0 -14 0 -22 1l-24 -145h-44l25 161c-63 35 -86 118 -86 254c0 175 53 260 164 260h6l20 126h44l-21 -131c52 -15 80 -68 84 -156h-56zM222 478h-9
c-71 0 -89 -71 -89 -230c0 -80 11 -136 34 -169z" />
    <glyph glyph-name="sterling" unicode="&#xa3;" horiz-adv-x="425" 
d="M35 -8v72c63 34 83 89 83 180c0 26 -2 55 -6 86h-77v53h67c-13 74 -27 133 -27 180c0 102 57 166 141 166c102 0 158 -70 158 -204h-64c-2 96 -31 144 -91 144c-49 0 -79 -35 -79 -94c0 -26 12 -90 30 -192h101v-53h-92c4 -31 5 -59 5 -83c0 -43 -7 -83 -21 -123
c29 -42 65 -64 99 -64c51 0 67 40 70 129h65v-4c0 -130 -44 -196 -128 -196c-50 0 -86 26 -132 77c-25 -37 -59 -62 -102 -74z" />
    <glyph glyph-name="fraction" unicode="&#x2044;" horiz-adv-x="167" 
d="M-166 -14l441 739h53l-441 -739h-53z" />
    <glyph glyph-name="yen" unicode="&#xa5;" horiz-adv-x="377" 
d="M381 718l-101 -259h88v-39h-103l-29 -73h132v-39h-146v-308h-65v308h-150v39h134l-29 73h-105v39h90l-103 259h72l124 -328l121 328h70z" />
    <glyph glyph-name="florin" unicode="&#x192;" horiz-adv-x="425" 
d="M19 -165v59c14 -4 27 -6 38 -6c21 0 36 7 46 20c39 53 51 211 72 477h-85v59h91c8 194 52 285 154 285c13 0 30 -1 54 -4v-59c-19 6 -35 8 -49 8c-70 0 -84 -70 -93 -230h87v-59h-93c-21 -378 -50 -556 -177 -556c-14 0 -29 2 -45 6z" />
    <glyph glyph-name="section" unicode="&#xa7;" 
d="M98 0l50 36c30 -43 65 -65 99 -65c39 0 68 28 68 63c0 42 -35 78 -86 132c-93 98 -161 156 -161 229c0 68 41 108 112 108c-39 43 -59 80 -59 119c0 66 51 115 126 115c55 0 108 -30 139 -84l-49 -35c-27 42 -60 63 -87 63c-38 0 -65 -24 -65 -57c0 -34 35 -71 93 -129
c93 -92 153 -150 153 -229c0 -57 -42 -98 -112 -100c40 -45 59 -88 59 -131c0 -75 -52 -123 -134 -123c-59 0 -109 30 -146 88zM131 404c0 -29 22 -59 59 -102c52 -59 91 -89 121 -89c31 0 55 23 55 54c0 32 -25 65 -69 113c-47 52 -80 79 -109 79s-57 -25 -57 -55z" />
    <glyph glyph-name="currency" unicode="&#xa4;" horiz-adv-x="425" 
d="M17 440h39c8 198 51 291 169 291c104 0 150 -71 165 -221h-70c-9 108 -35 158 -95 158c-72 0 -95 -72 -100 -228h179l-12 -39h-168v-73h165l-12 -39h-152c4 -163 26 -239 100 -239c78 0 90 85 97 187h71c-13 -169 -58 -249 -168 -249c-120 0 -163 96 -170 301h-56l12 39
h43v73h-49z" />
    <glyph glyph-name="quotesingle" unicode="'" horiz-adv-x="144" 
d="M97 700v-270h-49v270h49z" />
    <glyph glyph-name="quotedblleft" unicode="&#x201c;" horiz-adv-x="365" 
d="M148 592v-89h-79v95l59 139h29l-45 -145h36zM299 592v-89h-79v95l60 139h29l-45 -145h35z" />
    <glyph glyph-name="guillemotleft" unicode="&#xab;" horiz-adv-x="397" 
d="M359 411l-115 -152l116 -152h-61l-118 152l119 152h59zM214 411l-115 -152l116 -152h-61l-118 152l118 152h60z" />
    <glyph glyph-name="guilsinglleft" unicode="&#x2039;" horiz-adv-x="264" 
d="M216 411l-116 -152l116 -152h-61l-118 152l119 152h60z" />
    <glyph glyph-name="guilsinglright" unicode="&#x203a;" horiz-adv-x="264" 
d="M38 411h60l118 -152l-118 -152h-61l116 152z" />
    <glyph glyph-name="fi" unicode="&#xfb01;" horiz-adv-x="427" 
d="M297 641v82h70v-82h-70zM297 0v519h70v-519h-70zM232 728v-56c-13 3 -23 5 -31 5c-51 0 -56 -25 -56 -88v-70h83v-61h-83v-458h-69v458h-78v61h78v61c0 107 19 153 102 153c19 0 36 -1 54 -5z" />
    <glyph glyph-name="fl" unicode="&#xfb02;" horiz-adv-x="427" 
d="M297 0v723h70v-723h-70zM232 728v-56c-13 3 -23 5 -31 5c-51 0 -56 -25 -56 -88v-70h83v-61h-83v-458h-69v458h-78v61h78v61c0 107 19 153 102 153c19 0 36 -1 54 -5z" />
    <glyph glyph-name="endash" unicode="&#x2013;" 
d="M0 236v46h500v-46h-500z" />
    <glyph glyph-name="dagger" unicode="&#x2020;" 
d="M230 -110c-1 182 -9 321 -27 419c14 64 23 122 28 175l-159 -25v87l159 -26l-26 203h89l-26 -203l160 26v-87l-161 25c6 -53 14 -111 27 -175c-16 -80 -24 -219 -26 -419h-38z" />
    <glyph glyph-name="daggerdbl" unicode="&#x2021;" 
d="M204 312c16 76 25 133 27 172l-158 -25v87l159 -26l-27 203h90l-27 -203l160 26v-87l-161 25c8 -68 18 -125 30 -172c-9 -35 -21 -92 -28 -171l159 25v-87l-160 25l27 -203h-90l27 204l-159 -26v87l160 -25c-8 71 -18 128 -29 171z" />
    <glyph glyph-name="periodcentered" unicode="&#xb7;" horiz-adv-x="213" 
d="M106 410c28 0 52 -23 52 -51s-24 -52 -52 -52c-29 0 -51 23 -51 52c0 28 23 51 51 51z" />
    <glyph glyph-name="paragraph" unicode="&#xb6;" 
d="M459 688h-62v-688h-40v688h-92v-688h-40v382c-115 5 -184 73 -184 170c0 100 74 170 192 170h226v-34z" />
    <glyph glyph-name="bullet" unicode="&#x2022;" horiz-adv-x="590" 
d="M150 372c0 80 65 144 145 144c79 0 144 -64 144 -144c0 -79 -65 -145 -145 -145s-144 65 -144 145z" />
    <glyph glyph-name="quotesinglbase" unicode="&#x201a;" horiz-adv-x="213" 
d="M71 2v89h79v-95l-59 -139h-29l44 145h-35z" />
    <glyph glyph-name="quotedblbase" unicode="&#x201e;" horiz-adv-x="365" 
d="M68 1v89h79v-95l-59 -139h-29l44 145h-35zM219 1v89h79v-95l-59 -139h-29l45 145h-36z" />
    <glyph glyph-name="quotedblright" unicode="&#x201d;" horiz-adv-x="365" 
d="M72 648v89h79v-94l-59 -140h-29l45 145h-36zM224 648v89h79v-94l-59 -140h-29l44 145h-35z" />
    <glyph glyph-name="guillemotright" unicode="&#xbb;" horiz-adv-x="397" 
d="M36 411h60l119 -152l-118 -152h-61l115 152zM182 411h60l118 -152l-118 -152h-61l116 152z" />
    <glyph glyph-name="ellipsis" unicode="&#x2026;" horiz-adv-x="1000" 
d="M127 0v89h79v-89h-79zM460 0v89h79v-89h-79zM794 0v89h79v-89h-79z" />
    <glyph glyph-name="perthousand" unicode="&#x2030;" horiz-adv-x="1104" 
d="M543 292c84 0 151 -68 151 -152s-67 -152 -151 -152s-152 68 -152 152s68 152 152 152zM542 237c-54 0 -97 -43 -97 -97s43 -97 97 -97s97 43 97 97s-43 97 -97 97zM912 292c84 0 152 -68 152 -152s-68 -152 -152 -152s-152 68 -152 152s68 152 152 152zM912 237
c-54 0 -98 -43 -98 -97s44 -97 98 -97s97 43 97 97s-43 97 -97 97zM195 729c84 0 152 -68 152 -152s-68 -152 -152 -152s-152 68 -152 152s68 152 152 152zM195 674c-54 0 -98 -43 -98 -97s44 -97 98 -97s97 43 97 97s-43 97 -97 97zM114 -14l443 745h55l-443 -745h-55z" />
    <glyph glyph-name="questiondown" unicode="&#xbf;" horiz-adv-x="343" 
d="M239 723v-89h-79v89h79zM225 508c1 -10 1 -19 1 -28c0 -71 -20 -120 -46 -172c-32 -64 -75 -118 -75 -186c0 -51 26 -81 66 -81s68 32 68 87v3l57 -6c-1 -87 -50 -139 -129 -139c-80 0 -128 51 -128 134c0 85 52 145 91 214c28 49 44 95 44 154c0 6 -1 13 -1 20h52z" />
    <glyph glyph-name="grave" unicode="`" 
d="M317 585h-52l-137 171h87z" />
    <glyph glyph-name="acute" unicode="&#xb4;" 
d="M183 585l102 171h87l-137 -171h-52z" />
    <glyph glyph-name="circumflex" unicode="&#x2c6;" 
d="M110 585l96 171h87l96 -171h-52l-87 119l-88 -119h-52z" />
    <glyph glyph-name="tilde" unicode="&#x2dc;" 
d="M392 716c-16 -62 -51 -94 -97 -94c-12 0 -22 3 -32 6l-39 13c-9 3 -18 4 -26 4c-22 0 -37 -9 -47 -31h-43c14 60 48 91 97 91c10 0 20 -2 29 -5l38 -13c10 -3 21 -5 30 -5c23 0 39 11 47 34h43z" />
    <glyph glyph-name="macron" unicode="&#xaf;" 
d="M124 632v61h252v-61h-252z" />
    <glyph glyph-name="breve" unicode="&#x2d8;" 
d="M112 737h44c4 -50 33 -71 94 -71s90 21 94 71h44c-7 -91 -49 -133 -138 -133c-88 0 -132 42 -138 133z" />
    <glyph glyph-name="dotaccent" unicode="&#x2d9;" 
d="M207 612v101h86v-101h-86z" />
    <glyph glyph-name="dieresis" unicode="&#xa8;" 
d="M133 617v91h78v-91h-78zM289 617v91h78v-91h-78z" />
    <glyph glyph-name="ring" unicode="&#x2da;" 
d="M129 697c0 68 53 121 121 121s121 -53 121 -121s-53 -121 -121 -121s-121 53 -121 121zM181 697c0 -39 30 -70 69 -70s70 31 70 70s-31 70 -70 70c-40 0 -69 -31 -69 -70z" />
    <glyph glyph-name="cedilla" unicode="&#xb8;" 
d="M128 -207v43c52 -12 92 -18 120 -18c39 0 59 14 59 41c0 34 -21 48 -67 48c-8 0 -16 0 -25 -1v94h35v-52h11c73 0 110 -30 110 -86c0 -58 -41 -89 -121 -89c-32 0 -72 7 -122 20z" />
    <glyph glyph-name="hungarumlaut" unicode="&#x2dd;" 
d="M157 585l72 171h77l-108 -171h-41zM283 585l82 171h76l-117 -171h-41z" />
    <glyph glyph-name="ogonek" unicode="&#x2db;" 
d="M284 0c-44 -40 -67 -75 -67 -109c0 -29 13 -40 47 -40h40v-63h-39c-73 0 -108 25 -108 80c0 48 31 84 91 132h36z" />
    <glyph glyph-name="caron" unicode="&#x2c7;" 
d="M110 756h52l88 -119l87 119h52l-96 -171h-87z" />
    <glyph glyph-name="emdash" unicode="&#x2014;" horiz-adv-x="1000" 
d="M0 282h1000v-46h-1000v46z" />
    <glyph glyph-name="AE" unicode="&#xc6;" horiz-adv-x="677" 
d="M176 276h149l3 381h-12zM-5 0l285 723h370v-66h-251v-250h184v-66h-184v-274h260v-67h-334v208h-176l-82 -208h-72z" />
    <glyph glyph-name="ordfeminine" unicode="&#xaa;" horiz-adv-x="308" 
d="M210 394c-26 -25 -57 -36 -89 -36c-59 0 -95 35 -95 91c0 70 63 125 184 153c1 9 2 17 2 24c0 44 -18 64 -60 64c-37 0 -54 -21 -63 -69l-51 8c12 67 52 103 113 103c81 0 112 -39 112 -121v-166c0 -29 2 -57 6 -84h-53zM210 556c-86 -18 -132 -59 -132 -108
c0 -28 22 -49 52 -49c23 0 52 14 80 40v117z" />
    <glyph glyph-name="Lslash" unicode="&#x141;" horiz-adv-x="387" 
d="M74 0v316l-69 -47v62l69 49v343h74v-303l114 79v-63l-114 -80v-287h227v-69h-301z" />
    <glyph glyph-name="Oslash" unicode="&#xd8;" horiz-adv-x="481" 
d="M168 95c16 -26 42 -41 72 -41c87 0 122 103 122 313c0 63 -6 122 -16 179zM139 157l182 462c-18 33 -50 51 -81 51c-89 0 -121 -99 -121 -308c0 -75 6 -143 20 -205zM48 -67l55 131c-44 64 -62 160 -62 294c0 252 68 379 199 379c46 0 81 -12 110 -43l33 80l47 -21
l-45 -107c42 -68 55 -166 55 -301c0 -237 -73 -359 -204 -359c-38 0 -70 11 -97 36l-44 -112z" />
    <glyph glyph-name="OE" unicode="&#x152;" horiz-adv-x="716" 
d="M240 670c-85 0 -121 -95 -121 -291c0 -219 32 -325 121 -325c87 0 121 101 121 308s-35 308 -121 308zM369 0v69c-28 -55 -71 -83 -129 -83c-130 0 -199 127 -199 376c0 250 70 376 202 376c59 0 98 -26 126 -85v70h321v-66h-254v-250h187v-66h-187v-274h262v-67h-329z
" />
    <glyph glyph-name="ordmasculine" unicode="&#xba;" horiz-adv-x="287" 
d="M26 542c0 128 37 191 119 191c78 0 115 -63 115 -191c0 -127 -37 -190 -115 -190c-82 0 -119 62 -119 190zM80 542c0 -101 15 -147 64 -147c45 0 62 48 62 147c0 100 -17 148 -62 148c-49 0 -64 -47 -64 -148z" />
    <glyph glyph-name="ae" unicode="&#xe6;" horiz-adv-x="623" 
d="M280 276c-114 -26 -176 -84 -176 -155c0 -41 28 -71 69 -71c31 0 70 19 107 56v170zM349 309h167c1 10 1 20 1 29c0 89 -27 133 -82 133s-84 -54 -86 -162zM311 60c-53 -48 -105 -71 -155 -71c-73 0 -121 54 -121 133c0 101 83 178 245 220c1 11 1 21 1 31
c0 65 -22 96 -75 96c-52 0 -76 -30 -88 -99l-67 11c17 100 69 149 158 149c52 0 90 -18 116 -53c30 36 68 54 112 54c99 0 149 -80 149 -240c0 -13 0 -27 -1 -41h-237c0 -137 25 -201 89 -201c49 0 77 41 80 121h65c-6 -118 -61 -183 -145 -183c-53 0 -93 23 -126 73z" />
    <glyph glyph-name="dotlessi" unicode="&#x131;" horiz-adv-x="190" 
d="M60 0v519h70v-519h-70z" />
    <glyph glyph-name="lslash" unicode="&#x142;" horiz-adv-x="199" 
d="M65 0v326l-60 -41v49l60 43v346h69v-309l60 42v-50l-60 -42v-364h-69z" />
    <glyph glyph-name="oslash" unicode="&#xf8;" horiz-adv-x="382" 
d="M29 -97l53 138c-35 42 -47 114 -47 218c0 183 49 272 158 272c27 0 48 -6 67 -19l36 93l44 -21l-42 -106c34 -39 49 -111 49 -219c0 -183 -49 -272 -160 -272c-28 0 -51 6 -67 18l-46 -122zM144 69c10 -15 25 -20 49 -20c62 0 85 68 85 210c0 52 -3 96 -12 134zM115 129
l122 322c-11 13 -25 19 -44 19c-67 0 -89 -67 -89 -211c0 -47 3 -90 11 -130z" />
    <glyph glyph-name="oe" unicode="&#x153;" horiz-adv-x="625" 
d="M195 470c-67 0 -88 -67 -88 -211s21 -210 88 -210c62 0 85 68 85 210s-23 211 -85 211zM351 309h167v20c0 97 -22 142 -81 142c-57 0 -86 -54 -86 -162zM519 170h65c-6 -120 -61 -183 -151 -183c-54 0 -96 26 -117 73c-28 -48 -70 -73 -121 -73c-109 0 -158 89 -158 272
s49 272 158 272c54 0 90 -23 120 -74c29 50 68 74 123 74c99 0 150 -80 150 -240c0 -13 0 -27 -1 -41h-237c0 -10 -1 -19 -1 -28c0 -115 30 -173 89 -173c49 0 78 41 81 121z" />
    <glyph glyph-name="germandbls" unicode="&#xdf;" horiz-adv-x="422" 
d="M59 0v527c0 133 43 197 146 197c98 0 153 -62 153 -175c0 -72 -22 -117 -76 -145c70 -30 99 -92 99 -198c0 -140 -49 -215 -136 -215c-19 0 -38 3 -57 9v67c16 -11 34 -16 52 -16c50 0 72 54 72 167c0 98 -37 149 -107 151v63c62 3 86 40 86 122c0 73 -29 112 -85 112
c-53 0 -77 -44 -77 -134v-532h-70z" />
    <glyph glyph-name="Aacute" unicode="&#xc1;" horiz-adv-x="440" 
d="M13 0l157 723h102l158 -723h-78l-42 213h-182l-42 -213h-73zM144 281h151l-76 378zM153 791l102 171h87l-137 -171h-52z" />
    <glyph glyph-name="Acircumflex" unicode="&#xc2;" horiz-adv-x="440" 
d="M13 0l157 723h102l158 -723h-78l-42 213h-182l-42 -213h-73zM144 281h151l-76 378zM80 791l96 171h87l96 -171h-52l-87 119l-88 -119h-52z" />
    <glyph glyph-name="Adieresis" unicode="&#xc4;" horiz-adv-x="440" 
d="M13 0l157 723h102l158 -723h-78l-42 213h-182l-42 -213h-73zM144 281h151l-76 378zM103 823v91h78v-91h-78zM259 823v91h78v-91h-78z" />
    <glyph glyph-name="Agrave" unicode="&#xc0;" horiz-adv-x="440" 
d="M13 0l157 723h102l158 -723h-78l-42 213h-182l-42 -213h-73zM144 281h151l-76 378zM287 791h-52l-137 171h87z" />
    <glyph glyph-name="Aring" unicode="&#xc5;" horiz-adv-x="440" 
d="M13 0l157 723c-44 25 -68 65 -68 111c0 68 53 121 121 121s121 -53 121 -121c0 -49 -27 -91 -72 -111l158 -723h-78l-42 213h-182l-42 -213h-73zM144 281h151l-76 409zM154 834c0 -39 31 -70 70 -70s69 31 69 70s-30 69 -69 69c-40 0 -70 -30 -70 -69z" />
    <glyph glyph-name="Atilde" unicode="&#xc3;" horiz-adv-x="440" 
d="M13 0l157 723h102l158 -723h-78l-42 213h-182l-42 -213h-73zM144 281h151l-76 378zM362 922c-16 -62 -51 -94 -97 -94c-12 0 -22 3 -32 6l-39 13c-9 3 -18 4 -26 4c-22 0 -37 -9 -47 -31h-43c14 60 48 91 97 91c10 0 20 -2 29 -5l38 -13c10 -3 21 -5 30 -5
c23 0 39 11 47 34h43z" />
    <glyph glyph-name="Ccedilla" unicode="&#xc7;" horiz-adv-x="464" 
d="M434 237v-16c0 -152 -70 -235 -189 -235c-135 0 -204 122 -204 366c0 260 64 386 207 386c109 0 179 -83 179 -227h-72c-5 107 -44 162 -108 162c-95 0 -129 -102 -129 -314c0 -208 37 -307 141 -307c65 0 108 60 108 170v15h67zM117 -207v43c52 -12 92 -18 120 -18
c39 0 59 14 59 41c0 34 -21 48 -67 48c-8 0 -16 0 -25 -1v94h35v-52h11c73 0 110 -30 110 -86c0 -58 -41 -89 -121 -89c-32 0 -72 7 -122 20z" />
    <glyph glyph-name="Eacute" unicode="&#xc9;" horiz-adv-x="417" 
d="M65 0v723h325v-67h-251v-249h184v-66h-184v-274h260v-67h-334zM161 791l102 171h87l-137 -171h-52z" />
    <glyph glyph-name="Ecircumflex" unicode="&#xca;" horiz-adv-x="417" 
d="M65 0v723h325v-67h-251v-249h184v-66h-184v-274h260v-67h-334zM88 791l96 171h87l96 -171h-52l-87 119l-88 -119h-52z" />
    <glyph glyph-name="Edieresis" unicode="&#xcb;" horiz-adv-x="417" 
d="M65 0v723h325v-67h-251v-249h184v-66h-184v-274h260v-67h-334zM111 823v91h78v-91h-78zM267 823v91h78v-91h-78z" />
    <glyph glyph-name="Egrave" unicode="&#xc8;" horiz-adv-x="417" 
d="M65 0v723h325v-67h-251v-249h184v-66h-184v-274h260v-67h-334zM295 791h-52l-137 171h87z" />
    <glyph glyph-name="Eth" unicode="&#xd0;" horiz-adv-x="490" 
d="M74 0v353h-69v54h69v316h134c171 0 239 -112 239 -360c0 -250 -67 -363 -239 -363h-134zM148 659v-252h101v-54h-101v-285c14 -1 28 -2 40 -2c145 0 186 86 186 299c0 211 -42 296 -185 296c-13 0 -27 -1 -41 -2z" />
    <glyph glyph-name="Euro" unicode="&#x20ac;" horiz-adv-x="425" 
d="M17 440h39c8 198 51 291 169 291c104 0 150 -71 165 -221h-70c-9 108 -35 158 -95 158c-72 0 -95 -72 -100 -228h179l-12 -39h-168v-73h165l-12 -39h-152c4 -163 26 -239 100 -239c78 0 90 85 97 187h71c-13 -169 -58 -249 -168 -249c-120 0 -163 96 -170 301h-56l12 39
h43v73h-49z" />
    <glyph glyph-name="Iacute" unicode="&#xcd;" horiz-adv-x="209" 
d="M67 0v723h74v-723h-74zM38 791l102 171h87l-137 -171h-52z" />
    <glyph glyph-name="Icircumflex" unicode="&#xce;" horiz-adv-x="209" 
d="M67 0v723h74v-723h-74zM-35 791l96 171h87l96 -171h-52l-87 119l-88 -119h-52z" />
    <glyph glyph-name="Idieresis" unicode="&#xcf;" horiz-adv-x="209" 
d="M67 0v723h74v-723h-74zM-12 823v91h78v-91h-78zM144 823v91h78v-91h-78z" />
    <glyph glyph-name="Igrave" unicode="&#xcc;" horiz-adv-x="209" 
d="M67 0v723h74v-723h-74zM172 791h-52l-137 171h87z" />
    <glyph glyph-name="Ntilde" unicode="&#xd1;" horiz-adv-x="507" 
d="M186 500c-22 60 -40 116 -55 167v-667h-65v723h108l149 -410c21 -59 41 -119 59 -180c-6 62 -6 115 -6 158v432h65v-723h-73zM396 922c-16 -62 -51 -94 -97 -94c-12 0 -22 3 -32 6l-39 13c-9 3 -18 4 -26 4c-22 0 -37 -9 -47 -31h-43c14 60 48 91 97 91c10 0 20 -2 29 -5
l38 -13c10 -3 21 -5 30 -5c23 0 39 11 47 34h43z" />
    <glyph glyph-name="Oacute" unicode="&#xd3;" horiz-adv-x="481" 
d="M240 670c-85 0 -121 -95 -121 -291c0 -219 32 -325 121 -325c87 0 121 101 121 308s-35 308 -121 308zM240 -14c-130 0 -199 127 -199 376s69 375 199 375s200 -126 200 -375s-70 -376 -200 -376zM174 791l102 171h87l-137 -171h-52z" />
    <glyph glyph-name="Ocircumflex" unicode="&#xd4;" horiz-adv-x="481" 
d="M240 670c-85 0 -121 -95 -121 -291c0 -219 32 -325 121 -325c87 0 121 101 121 308s-35 308 -121 308zM240 -14c-130 0 -199 127 -199 376s69 375 199 375s200 -126 200 -375s-70 -376 -200 -376zM101 791l96 171h87l96 -171h-52l-87 119l-88 -119h-52z" />
    <glyph glyph-name="Odieresis" unicode="&#xd6;" horiz-adv-x="481" 
d="M240 670c-85 0 -121 -95 -121 -291c0 -219 32 -325 121 -325c87 0 121 101 121 308s-35 308 -121 308zM240 -14c-130 0 -199 127 -199 376s69 375 199 375s200 -126 200 -375s-70 -376 -200 -376zM124 823v91h78v-91h-78zM280 823v91h78v-91h-78z" />
    <glyph glyph-name="Ograve" unicode="&#xd2;" horiz-adv-x="481" 
d="M240 670c-85 0 -121 -95 -121 -291c0 -219 32 -325 121 -325c87 0 121 101 121 308s-35 308 -121 308zM240 -14c-130 0 -199 127 -199 376s69 375 199 375s200 -126 200 -375s-70 -376 -200 -376zM308 791h-52l-137 171h87z" />
    <glyph glyph-name="Otilde" unicode="&#xd5;" horiz-adv-x="481" 
d="M240 670c-85 0 -121 -95 -121 -291c0 -219 32 -325 121 -325c87 0 121 101 121 308s-35 308 -121 308zM240 -14c-130 0 -199 127 -199 376s69 375 199 375s200 -126 200 -375s-70 -376 -200 -376zM383 922c-16 -62 -51 -94 -97 -94c-12 0 -22 3 -32 6l-39 13
c-9 3 -18 4 -26 4c-22 0 -37 -9 -47 -31h-43c14 60 48 91 97 91c10 0 20 -2 29 -5l38 -13c10 -3 21 -5 30 -5c23 0 39 11 47 34h43z" />
    <glyph glyph-name="Scaron" unicode="&#x160;" horiz-adv-x="435" 
d="M36 192h70c5 -94 41 -139 115 -139c63 0 106 47 106 120c0 78 -52 124 -140 189c-89 66 -140 114 -140 212c0 92 67 163 160 163c107 0 173 -71 177 -196h-69c-6 89 -41 134 -105 134c-59 0 -97 -39 -97 -101c0 -31 13 -62 35 -85c38 -40 88 -71 135 -109
c77 -62 114 -120 114 -204c0 -116 -72 -190 -178 -190c-114 0 -181 74 -183 206zM78 962h52l88 -119l87 119h52l-96 -171h-87z" />
    <glyph glyph-name="Thorn" unicode="&#xde;" horiz-adv-x="447" 
d="M139 0h-74v723h74v-144h73c130 0 207 -73 207 -197c0 -132 -77 -196 -233 -196h-47v-186zM139 512v-264h63c98 0 147 45 147 131c0 89 -49 133 -147 133h-63z" />
    <glyph glyph-name="Uacute" unicode="&#xda;" horiz-adv-x="490" 
d="M63 253v470h74v-463c0 -141 9 -208 108 -208c97 0 107 68 107 208v463h74v-470c0 -95 -3 -161 -38 -206c-30 -38 -81 -61 -143 -61c-63 0 -114 23 -144 61c-36 45 -38 111 -38 206zM178 791l102 171h87l-137 -171h-52z" />
    <glyph glyph-name="Ucircumflex" unicode="&#xdb;" horiz-adv-x="490" 
d="M63 253v470h74v-463c0 -141 9 -208 108 -208c97 0 107 68 107 208v463h74v-470c0 -95 -3 -161 -38 -206c-30 -38 -81 -61 -143 -61c-63 0 -114 23 -144 61c-36 45 -38 111 -38 206zM105 791l96 171h87l96 -171h-52l-87 119l-88 -119h-52z" />
    <glyph glyph-name="Udieresis" unicode="&#xdc;" horiz-adv-x="490" 
d="M63 253v470h74v-463c0 -141 9 -208 108 -208c97 0 107 68 107 208v463h74v-470c0 -95 -3 -161 -38 -206c-30 -38 -81 -61 -143 -61c-63 0 -114 23 -144 61c-36 45 -38 111 -38 206zM128 823v91h78v-91h-78zM284 823v91h78v-91h-78z" />
    <glyph glyph-name="Ugrave" unicode="&#xd9;" horiz-adv-x="490" 
d="M63 253v470h74v-463c0 -141 9 -208 108 -208c97 0 107 68 107 208v463h74v-470c0 -95 -3 -161 -38 -206c-30 -38 -81 -61 -143 -61c-63 0 -114 23 -144 61c-36 45 -38 111 -38 206zM312 791h-52l-137 171h87z" />
    <glyph glyph-name="Yacute" unicode="&#xdd;" horiz-adv-x="377" 
d="M151 0v311l-162 412h77l124 -329l121 329h76l-160 -412v-311h-76zM122 791l102 171h87l-137 -171h-52z" />
    <glyph glyph-name="Ydieresis" unicode="&#x178;" horiz-adv-x="377" 
d="M151 0v311l-162 412h77l124 -329l121 329h76l-160 -412v-311h-76zM72 823v91h78v-91h-78zM228 823v91h78v-91h-78z" />
    <glyph glyph-name="Zcaron" unicode="&#x17d;" horiz-adv-x="369" 
d="M358 0h-344v56l262 609h-235v58h317v-50l-264 -607h264v-66zM45 962h52l88 -119l87 119h52l-96 -171h-87z" />
    <glyph glyph-name="aacute" unicode="&#xe1;" horiz-adv-x="410" 
d="M280 47c-35 -35 -76 -52 -119 -52c-79 0 -126 51 -126 131c0 100 83 178 245 219c1 12 2 23 2 33c0 64 -23 92 -80 92c-49 0 -72 -30 -84 -98l-67 11c16 96 69 147 150 147c108 0 149 -55 149 -173v-237c0 -42 3 -81 9 -120h-71zM280 279c-115 -26 -176 -84 -176 -154
c0 -40 29 -70 69 -70c31 0 69 19 107 56v168zM144 585l102 171h87l-137 -171h-52z" />
    <glyph glyph-name="acircumflex" unicode="&#xe2;" horiz-adv-x="410" 
d="M280 47c-35 -35 -76 -52 -119 -52c-79 0 -126 51 -126 131c0 100 83 178 245 219c1 12 2 23 2 33c0 64 -23 92 -80 92c-49 0 -72 -30 -84 -98l-67 11c16 96 69 147 150 147c108 0 149 -55 149 -173v-237c0 -42 3 -81 9 -120h-71zM280 279c-115 -26 -176 -84 -176 -154
c0 -40 29 -70 69 -70c31 0 69 19 107 56v168zM71 585l96 171h87l96 -171h-52l-87 119l-88 -119h-52z" />
    <glyph glyph-name="adieresis" unicode="&#xe4;" horiz-adv-x="410" 
d="M280 47c-35 -35 -76 -52 -119 -52c-79 0 -126 51 -126 131c0 100 83 178 245 219c1 12 2 23 2 33c0 64 -23 92 -80 92c-49 0 -72 -30 -84 -98l-67 11c16 96 69 147 150 147c108 0 149 -55 149 -173v-237c0 -42 3 -81 9 -120h-71zM280 279c-115 -26 -176 -84 -176 -154
c0 -40 29 -70 69 -70c31 0 69 19 107 56v168zM94 617v91h78v-91h-78zM250 617v91h78v-91h-78z" />
    <glyph glyph-name="agrave" unicode="&#xe0;" horiz-adv-x="410" 
d="M280 47c-35 -35 -76 -52 -119 -52c-79 0 -126 51 -126 131c0 100 83 178 245 219c1 12 2 23 2 33c0 64 -23 92 -80 92c-49 0 -72 -30 -84 -98l-67 11c16 96 69 147 150 147c108 0 149 -55 149 -173v-237c0 -42 3 -81 9 -120h-71zM280 279c-115 -26 -176 -84 -176 -154
c0 -40 29 -70 69 -70c31 0 69 19 107 56v168zM278 585h-52l-137 171h87z" />
    <glyph glyph-name="aring" unicode="&#xe5;" horiz-adv-x="410" 
d="M280 279c-115 -26 -176 -84 -176 -154c0 -40 29 -70 69 -70c31 0 69 19 107 56v168zM280 47c-35 -35 -76 -52 -119 -52c-79 0 -126 51 -126 131c0 100 83 178 245 219c1 12 2 23 2 33c0 64 -23 92 -80 92c-49 0 -72 -30 -84 -98l-67 11c16 96 69 147 150 147
c108 0 149 -55 149 -173v-237c0 -42 3 -81 9 -120h-71zM143 684c0 -39 31 -69 70 -69s69 30 69 69s-30 70 -69 70c-40 0 -70 -31 -70 -70zM92 685c0 68 53 121 121 121s121 -53 121 -121s-53 -121 -121 -121s-121 53 -121 121z" />
    <glyph glyph-name="atilde" unicode="&#xe3;" horiz-adv-x="410" 
d="M280 47c-35 -35 -76 -52 -119 -52c-79 0 -126 51 -126 131c0 100 83 178 245 219c1 12 2 23 2 33c0 64 -23 92 -80 92c-49 0 -72 -30 -84 -98l-67 11c16 96 69 147 150 147c108 0 149 -55 149 -173v-237c0 -42 3 -81 9 -120h-71zM280 279c-115 -26 -176 -84 -176 -154
c0 -40 29 -70 69 -70c31 0 69 19 107 56v168zM353 716c-16 -62 -51 -94 -97 -94c-12 0 -22 3 -32 6l-39 13c-9 3 -18 4 -26 4c-22 0 -37 -9 -47 -31h-43c14 60 48 91 97 91c10 0 20 -2 29 -5l38 -13c10 -3 21 -5 30 -5c23 0 39 11 47 34h43z" />
    <glyph glyph-name="brokenbar" unicode="&#xa6;" 
d="M277 699v-370h-53v370h53zM277 199v-370h-53v370h53z" />
    <glyph glyph-name="ccedilla" unicode="&#xe7;" horiz-adv-x="373" 
d="M272 370c-3 67 -29 101 -78 101c-65 0 -87 -69 -87 -212c0 -144 21 -210 88 -210c49 0 77 41 80 121h64c-1 -115 -59 -183 -144 -183c-109 0 -158 89 -158 272s49 272 158 272c81 0 137 -60 141 -161h-64zM65 -207v43c52 -12 92 -18 120 -18c39 0 59 14 59 41
c0 34 -21 48 -67 48c-8 0 -16 0 -25 -1v94h35v-52h11c73 0 110 -30 110 -86c0 -58 -41 -89 -121 -89c-32 0 -72 7 -122 20z" />
    <glyph glyph-name="copyright" unicode="&#xa9;" horiz-adv-x="833" 
d="M416 711c97 0 187 -37 255 -105c67 -67 103 -157 103 -253c0 -98 -36 -185 -103 -251c-70 -69 -161 -107 -255 -107s-183 37 -252 106c-68 68 -105 157 -105 252s38 185 107 255c66 67 153 103 250 103zM735 353c0 86 -33 166 -92 225c-61 61 -140 94 -227 94
c-86 0 -164 -32 -223 -92c-62 -63 -95 -143 -95 -227s33 -163 94 -224s140 -94 224 -94s165 33 228 95c59 58 91 136 91 223zM524 447c-12 52 -51 82 -106 82c-78 0 -126 -63 -126 -177c0 -110 49 -173 126 -173c58 0 101 35 112 92h56c-7 -81 -77 -139 -171 -139
c-113 0 -186 82 -186 223c0 135 79 219 191 219c88 0 153 -51 161 -127h-57z" />
    <glyph glyph-name="degree" unicode="&#xb0;" horiz-adv-x="329" 
d="M165 709c75 0 135 -61 135 -136c0 -74 -60 -136 -136 -136s-135 60 -135 136s61 136 136 136zM266 573c0 56 -45 102 -101 102s-102 -46 -102 -102c0 -57 46 -101 102 -101c57 0 101 45 101 101z" />
    <glyph glyph-name="divide" unicode="&#xf7;" horiz-adv-x="833" 
d="M417 523c29 0 52 -24 52 -53c0 -28 -22 -52 -52 -52s-52 23 -52 52s24 53 52 53zM709 322v-48h-585v48h585zM417 178c29 0 52 -23 52 -52c0 -28 -22 -52 -52 -52c-29 0 -52 23 -52 52s24 52 52 52z" />
    <glyph glyph-name="eacute" unicode="&#xe9;" horiz-adv-x="381" 
d="M108 308h166v20c0 97 -21 143 -80 143c-56 0 -82 -53 -86 -163zM275 170h66c-6 -118 -62 -183 -146 -183c-109 0 -158 89 -158 272s49 272 158 272c99 0 150 -80 150 -240c0 -13 0 -27 -1 -41h-237c1 -137 23 -201 88 -201c49 0 77 41 80 121zM131 585l102 171h87
l-137 -171h-52z" />
    <glyph glyph-name="ecircumflex" unicode="&#xea;" horiz-adv-x="381" 
d="M108 308h166v20c0 97 -21 143 -80 143c-56 0 -82 -53 -86 -163zM275 170h66c-6 -118 -62 -183 -146 -183c-109 0 -158 89 -158 272s49 272 158 272c99 0 150 -80 150 -240c0 -13 0 -27 -1 -41h-237c1 -137 23 -201 88 -201c49 0 77 41 80 121zM58 585l96 171h87l96 -171
h-52l-87 119l-88 -119h-52z" />
    <glyph glyph-name="edieresis" unicode="&#xeb;" horiz-adv-x="381" 
d="M108 308h166v20c0 97 -21 143 -80 143c-56 0 -82 -53 -86 -163zM275 170h66c-6 -118 -62 -183 -146 -183c-109 0 -158 89 -158 272s49 272 158 272c99 0 150 -80 150 -240c0 -13 0 -27 -1 -41h-237c1 -137 23 -201 88 -201c49 0 77 41 80 121zM81 617v91h78v-91h-78z
M237 617v91h78v-91h-78z" />
    <glyph glyph-name="egrave" unicode="&#xe8;" horiz-adv-x="381" 
d="M108 308h166v20c0 97 -21 143 -80 143c-56 0 -82 -53 -86 -163zM275 170h66c-6 -118 -62 -183 -146 -183c-109 0 -158 89 -158 272s49 272 158 272c99 0 150 -80 150 -240c0 -13 0 -27 -1 -41h-237c1 -137 23 -201 88 -201c49 0 77 41 80 121zM265 585h-52l-137 171h87z
" />
    <glyph glyph-name="eth" unicode="&#xf0;" horiz-adv-x="382" 
d="M116 244c0 -136 18 -199 77 -199c53 0 75 65 75 199s-22 199 -75 199c-59 0 -77 -63 -77 -199zM225 495c-8 25 -17 48 -31 67l-111 -44l-18 45l102 40c-18 28 -50 52 -90 75l17 45c43 -14 86 -47 130 -99l110 42l19 -43l-103 -39c54 -100 82 -213 82 -340
c0 -172 -45 -257 -138 -257c-99 0 -143 84 -143 257c0 171 47 257 136 257c10 0 22 -2 38 -6z" />
    <glyph glyph-name="iacute" unicode="&#xed;" horiz-adv-x="190" 
d="M60 0v519h70v-519h-70zM28 585l102 171h87l-137 -171h-52z" />
    <glyph glyph-name="icircumflex" unicode="&#xee;" horiz-adv-x="190" 
d="M60 0v519h70v-519h-70zM-45 585l96 171h87l96 -171h-52l-87 119l-88 -119h-52z" />
    <glyph glyph-name="idieresis" unicode="&#xef;" horiz-adv-x="190" 
d="M60 0v519h70v-519h-70zM-22 617v91h78v-91h-78zM134 617v91h78v-91h-78z" />
    <glyph glyph-name="igrave" unicode="&#xec;" horiz-adv-x="190" 
d="M60 0v519h70v-519h-70zM162 585h-52l-137 171h87z" />
    <glyph glyph-name="logicalnot" unicode="&#xac;" horiz-adv-x="833" 
d="M709 419v-245h-47v196h-538v49h585z" />
    <glyph glyph-name="minus" unicode="&#x2212;" horiz-adv-x="833" 
d="M709 322v-48h-585v48h585z" />
    <glyph glyph-name="mu" unicode="&#xb5;" horiz-adv-x="542" 
d="M168 520l-61 -289c-5 -23 -8 -45 -8 -68c0 -76 39 -119 110 -119c80 0 141 69 170 204l59 272h68l-80 -376c-7 -31 -11 -52 -11 -65c0 -21 11 -32 33 -32c2 0 8 0 18 1l-10 -54c-15 -4 -30 -5 -42 -5c-46 0 -67 23 -67 71v7c-27 -50 -80 -79 -146 -79
c-60 0 -106 27 -131 76l-56 -272h-68l154 728h68z" />
    <glyph glyph-name="multiply" unicode="&#xd7;" horiz-adv-x="833" 
d="M418 332l235 235l34 -34l-235 -235l235 -235l-34 -34l-235 235l-235 -235l-34 34l235 235l-235 235l34 34z" />
    <glyph glyph-name="ntilde" unicode="&#xf1;" horiz-adv-x="413" 
d="M62 0v519h69v-54c40 45 77 67 123 67c68 0 100 -44 100 -134v-398h-69v375c0 68 -12 96 -58 96c-34 0 -69 -23 -96 -68v-403h-69zM349 716c-16 -62 -51 -94 -97 -94c-12 0 -22 3 -32 6l-39 13c-9 3 -18 4 -26 4c-22 0 -37 -9 -47 -31h-43c14 60 48 91 97 91
c10 0 20 -2 29 -5l38 -13c10 -3 21 -5 30 -5c23 0 39 11 47 34h43z" />
    <glyph glyph-name="oacute" unicode="&#xf3;" horiz-adv-x="382" 
d="M35 259c0 183 49 272 158 272c104 0 154 -90 154 -272s-50 -272 -154 -272c-109 0 -158 89 -158 272zM106 259c0 -144 21 -210 86 -210c60 0 83 68 83 210s-23 211 -83 211c-65 0 -86 -67 -86 -211zM124 585l102 171h87l-137 -171h-52z" />
    <glyph glyph-name="ocircumflex" unicode="&#xf4;" horiz-adv-x="382" 
d="M35 259c0 183 49 272 158 272c104 0 154 -90 154 -272s-50 -272 -154 -272c-109 0 -158 89 -158 272zM106 259c0 -144 21 -210 86 -210c60 0 83 68 83 210s-23 211 -83 211c-65 0 -86 -67 -86 -211zM51 585l96 171h87l96 -171h-52l-87 119l-88 -119h-52z" />
    <glyph glyph-name="odieresis" unicode="&#xf6;" horiz-adv-x="382" 
d="M35 259c0 183 49 272 158 272c104 0 154 -90 154 -272s-50 -272 -154 -272c-109 0 -158 89 -158 272zM106 259c0 -144 21 -210 86 -210c60 0 83 68 83 210s-23 211 -83 211c-65 0 -86 -67 -86 -211zM74 617v91h78v-91h-78zM230 617v91h78v-91h-78z" />
    <glyph glyph-name="ograve" unicode="&#xf2;" horiz-adv-x="382" 
d="M35 259c0 183 49 272 158 272c104 0 154 -90 154 -272s-50 -272 -154 -272c-109 0 -158 89 -158 272zM106 259c0 -144 21 -210 86 -210c60 0 83 68 83 210s-23 211 -83 211c-65 0 -86 -67 -86 -211zM258 585h-52l-137 171h87z" />
    <glyph glyph-name="onehalf" unicode="&#xbd;" horiz-adv-x="702" 
d="M63 316v34h55v321l-55 -3v23c29 8 53 18 73 31h25v-372h52v-34h-150zM102 -14l441 739h53l-441 -739h-53zM463 0v35c18 50 54 95 95 145c38 47 71 84 71 132c0 39 -23 62 -59 62c-39 0 -61 -28 -63 -83h-39c2 78 36 117 106 117c60 0 98 -37 98 -95
c0 -55 -40 -100 -88 -159c-38 -46 -67 -83 -81 -116h168v-38h-208z" />
    <glyph glyph-name="onequarter" unicode="&#xbc;" horiz-adv-x="702" 
d="M63 316v34h55v321l-55 -3v23c29 8 53 18 73 31h25v-372h52v-34h-150zM102 -14l441 739h53l-441 -739h-53zM594 -7v98h-142v20l122 291h63v-276h47v-35h-47v-98h-43zM594 126l4 248h-2c-10 -28 -19 -52 -27 -71l-73 -177h98z" />
    <glyph glyph-name="onesuperior" unicode="&#xb9;" horiz-adv-x="280" 
d="M67 287v36h57v344l-57 -3v24c30 9 55 20 76 34h26v-399h54v-36h-156z" />
    <glyph glyph-name="otilde" unicode="&#xf5;" horiz-adv-x="382" 
d="M35 259c0 183 49 272 158 272c104 0 154 -90 154 -272s-50 -272 -154 -272c-109 0 -158 89 -158 272zM106 259c0 -144 21 -210 86 -210c60 0 83 68 83 210s-23 211 -83 211c-65 0 -86 -67 -86 -211zM333 716c-16 -62 -51 -94 -97 -94c-12 0 -22 3 -32 6l-39 13
c-9 3 -18 4 -26 4c-22 0 -37 -9 -47 -31h-43c14 60 48 91 97 91c10 0 20 -2 29 -5l38 -13c10 -3 21 -5 30 -5c23 0 39 11 47 34h43z" />
    <glyph glyph-name="plusminus" unicode="&#xb1;" horiz-adv-x="833" 
d="M441 571v-170h268v-48h-268v-170h-48v170h-269v48h269v170h48zM709 73v-48h-585v48h585z" />
    <glyph glyph-name="registered" unicode="&#xae;" horiz-adv-x="833" 
d="M416 711c98 0 187 -36 255 -105c67 -67 103 -157 103 -253c0 -98 -36 -185 -103 -251c-70 -69 -161 -107 -255 -107c-95 0 -184 37 -252 106c-68 68 -105 157 -105 252c0 94 38 185 107 255c66 67 153 103 250 103zM735 352c0 87 -32 167 -91 226c-61 61 -141 94 -228 94
c-86 0 -163 -33 -222 -92c-62 -63 -96 -143 -96 -227s33 -163 94 -224s140 -94 224 -94s165 33 228 95c60 58 91 135 91 222zM427 565c114 0 170 -35 170 -114c0 -57 -37 -100 -97 -108l92 -190h-71l-87 181h-96v-181h-62v412h151zM415 523h-77v-148h77c81 0 118 16 118 72
c0 55 -37 76 -118 76z" />
    <glyph glyph-name="scaron" unicode="&#x161;" horiz-adv-x="376" 
d="M36 126l66 15c9 -61 45 -96 91 -96c44 0 76 32 76 80c0 54 -39 80 -95 118c-76 52 -123 89 -123 158c0 76 56 130 129 130c78 0 125 -40 146 -124l-59 -18c-14 56 -42 85 -84 85c-40 0 -66 -27 -66 -64c0 -61 69 -86 152 -149c46 -35 68 -77 68 -131
c0 -86 -58 -142 -150 -142c-79 0 -137 52 -151 138zM48 756h52l88 -119l87 119h52l-96 -171h-87z" />
    <glyph glyph-name="thorn" unicode="&#xfe;" horiz-adv-x="410" 
d="M132 117c28 -44 57 -66 88 -66c61 0 83 70 83 215c0 140 -24 207 -83 207c-31 0 -60 -22 -88 -66v-290zM132 48v-222h-70v897h70v-251c33 40 66 59 102 59c88 0 141 -92 141 -271c0 -180 -52 -272 -142 -272c-35 0 -69 20 -101 60z" />
    <glyph glyph-name="threequarters" unicode="&#xbe;" horiz-adv-x="703" 
d="M23 412h39c0 -45 19 -67 59 -67s64 30 64 87c0 56 -31 82 -98 82h-4v32h6c60 0 89 24 89 74c0 44 -22 70 -53 70s-49 -18 -54 -55h-39c4 57 39 88 92 88c58 0 97 -40 97 -105c0 -43 -18 -71 -55 -87c44 -15 65 -48 65 -99c0 -76 -43 -122 -108 -122
c-64 0 -100 34 -100 97v5zM102 -14l441 739h53l-441 -739h-53zM594 -7v98h-142v20l122 291h63v-276h47v-35h-47v-98h-43zM594 126l4 248h-2c-10 -28 -19 -52 -27 -71l-73 -177h98z" />
    <glyph glyph-name="threesuperior" unicode="&#xb3;" horiz-adv-x="281" 
d="M24 390h41c0 -48 20 -72 62 -72c41 0 66 33 66 93c0 61 -31 88 -102 88h-5v34h7c63 0 94 26 94 79c0 48 -23 75 -56 75c-32 0 -51 -19 -57 -58h-40c4 61 41 94 96 94c61 0 102 -43 102 -112c0 -46 -19 -76 -58 -94c46 -15 68 -51 68 -106c0 -81 -45 -130 -113 -130
s-105 36 -105 103v6z" />
    <glyph glyph-name="trademark" unicode="&#x2122;" horiz-adv-x="833" 
d="M339 710v-28h-84v-231h-40v231h-86v28h210zM458 710l81 -206l76 206h57v-259h-35v228l-86 -228h-24l-91 228v-228h-35v259h57z" />
    <glyph glyph-name="twosuperior" unicode="&#xb2;" horiz-adv-x="281" 
d="M29 287v37c19 54 57 102 100 156c40 51 74 90 74 141c0 42 -24 67 -61 67c-42 0 -64 -30 -66 -90h-42c2 84 38 126 111 126c64 0 103 -39 103 -102c0 -59 -41 -106 -92 -170c-40 -49 -70 -89 -85 -125h176v-40h-218z" />
    <glyph glyph-name="uacute" unicode="&#xfa;" horiz-adv-x="413" 
d="M352 519v-519h-69v54c-40 -45 -77 -67 -123 -67c-68 0 -100 43 -100 133v399h69v-375c0 -68 12 -96 58 -96c34 0 69 23 96 68v403h69zM140 585l102 171h87l-137 -171h-52z" />
    <glyph glyph-name="ucircumflex" unicode="&#xfb;" horiz-adv-x="413" 
d="M352 519v-519h-69v54c-40 -45 -77 -67 -123 -67c-68 0 -100 43 -100 133v399h69v-375c0 -68 12 -96 58 -96c34 0 69 23 96 68v403h69zM67 585l96 171h87l96 -171h-52l-87 119l-88 -119h-52z" />
    <glyph glyph-name="udieresis" unicode="&#xfc;" horiz-adv-x="413" 
d="M352 519v-519h-69v54c-40 -45 -77 -67 -123 -67c-68 0 -100 43 -100 133v399h69v-375c0 -68 12 -96 58 -96c34 0 69 23 96 68v403h69zM90 617v91h78v-91h-78zM246 617v91h78v-91h-78z" />
    <glyph glyph-name="ugrave" unicode="&#xf9;" horiz-adv-x="413" 
d="M352 519v-519h-69v54c-40 -45 -77 -67 -123 -67c-68 0 -100 43 -100 133v399h69v-375c0 -68 12 -96 58 -96c34 0 69 23 96 68v403h69zM274 585h-52l-137 171h87z" />
    <glyph glyph-name="yacute" unicode="&#xfd;" horiz-adv-x="347" 
d="M9 519h72l90 -391l88 391h69l-121 -517c-29 -122 -74 -177 -173 -177c-7 0 -15 0 -22 1v64c6 -1 12 -1 18 -1c64 0 96 36 111 117zM107 585l102 171h87l-137 -171h-52z" />
    <glyph glyph-name="ydieresis" unicode="&#xff;" horiz-adv-x="347" 
d="M9 519h72l90 -391l88 391h69l-121 -517c-29 -122 -74 -177 -173 -177c-7 0 -15 0 -22 1v64c6 -1 12 -1 18 -1c64 0 96 36 111 117zM57 617v91h78v-91h-78zM213 617v91h78v-91h-78z" />
    <glyph glyph-name="zcaron" unicode="&#x17e;" horiz-adv-x="332" 
d="M24 0v53l207 407h-188v59h264v-49l-209 -412h209v-58h-283zM26 756h52l88 -119l87 119h52l-96 -171h-87z" />
    </font>
</defs>
</svg>
